<svg version="1.1" xmlns="http://www.w3.org/2000/svg" viewBox="0 0 2334.8910151462933 1485.4434918913853">
  <!-- svg-source:excalidraw -->
  <defs>
    <style>
      @font-face {
        font-family: "Virgil";
        src: url("https://excalidraw.com/FG_Virgil.woff2");
      }
      @font-face {
        font-family: "Cascadia";
        src: url("https://excalidraw.com/Cascadia.woff2");
      }
    </style>
  </defs>
  <g transform="translate(78.03062528722421 326.7142773540081) rotate(0 135.96203373927688 94.43013808306523)"><path d="M0.625153162845749 2.849823568589073 C73.33788145723659 -0.3209404595263696, 150.0097475635891 2.38798853104678, 274.9464840322762 -0.6630475104222998 M-1.0605014481068613 1.2240414121164804 C103.82657918046226 -2.556810002334874, 210.39438588434834 -2.1556710692298826, 273.17100494223257 -0.9004982120659987 M268.16654301799963 -3.4632354080677032 C270.8822952678668 41.119762710834685, 272.68042053489563 79.58017171840895, 270.18494225658606 191.54668656342164 M271.99652167774866 1.4366493374109268 C269.51654234964195 73.72540747136925, 267.81508866388145 149.05910273911664, 271.18171140171717 190.59009118728773 M270.27456586597634 191.2128462023001 C190.08041061315583 190.47187214148795, 114.14554535974301 193.29150129637137, -1.2717425095375738 190.61612693555196 M270.98234477731256 188.42443780201694 C177.72696698174317 190.32501048092288, 86.77014121077686 192.15137236817063, -0.9265866112346138 188.89349589843314 M-0.31934353709220886 189.82839718811647 C-4.52462138691155 138.98313902010761, -1.2111762956639907 85.47427611577066, 3.932515174150467 2.4399714171886444 M1.5061805099248886 189.6996707504286 C-4.920300676548976 115.68152491216415, -5.128925993168849 38.24444902018877, -1.1738946586847305 -1.0690693706274033" stroke="#000000" stroke-width="2" fill="none"></path></g><g transform="translate(626.6947931027877 735.7645643389192) rotate(0 183.37318570006124 119.14215087890622)"><path d="M1.8758920935762855 1.901395081535177 C105.78764713843252 -1.5289903559620686, 212.6778076404828 0.030811446998858627, 366.83412121136473 0.915001868545281 M0.21810452678554185 0.6992211696237924 C83.01628459429364 1.4239557740443285, 166.53444957532923 0.9672389252058144, 366.5122925009727 -0.4671258561843104 M364.18139659238346 -1.7598772588218978 C371.8881420088229 54.10503537017104, 366.2885267925164 110.60398457148148, 367.29283547560726 240.76620989919905 M367.25532751130936 1.388938212772525 C362.83944664243745 64.19009546533582, 363.35193675859244 126.15102092995753, 368.1203572531131 237.60731862661686 M364.9958728007793 238.035977597165 C289.6973130319832 234.69097339269823, 212.71792472984137 234.66974128865098, -2.434844354567018 236.85515855899945 M367.4133019978419 237.3295206067452 C246.72918326223868 234.90479106350597, 126.5967824498918 234.61138659252197, -0.3459592916226868 239.04408137770326 M0.2414111658901216 238.69287927190237 C1.455036792441654 168.31679830483992, -1.626549652457994 106.379474393966, -1.0606283376084604 2.264311329353773 M0.5555600767007355 238.34589335674727 C1.9597631610145874 183.3562984979651, 1.7623783061348222 130.53551087437006, -0.99646568785385 -1.0281017437795734" stroke="#000000" stroke-width="2" fill="none"></path></g><g transform="translate(1949.0202564912684 733.7118682604878) rotate(0 183.3731857000613 119.14215087890624)"><path d="M-1.0923232839813761 1.64680533757244 C143.13750766837407 -0.044710392275000954, 284.75796636422035 -1.9819074908231338, 367.10598862374627 1.64680355789844 M0.4650460290409951 0.015913390722298856 C123.66530804930969 -3.072633010340551, 249.72490347166462 -1.5162532238697062, 365.644306801696 -0.8012408333800263 M363.9339261603994 -0.326360903813334 C362.5051173521087 60.55035535500283, 365.34965776575535 116.9588579090453, 369.7116432756786 237.41413223188832 M366.3357189712189 1.1188003746605193 C362.942366413255 56.470626261549235, 362.70209200299365 115.53025321439104, 366.3853240493419 239.12264542797206 M369.16188879165946 237.35517016754244 C240.6252227362433 233.34042196324708, 109.68693644840722 236.8398204585331, 1.2176704325374037 236.0534151623662 M366.97266882301244 238.84464056096292 C246.6145353644385 236.72082945311078, 126.68892438328245 236.73526171941555, 1.2223919354673838 237.5421051687376 M3.150940549485012 236.1729905542776 C1.1718216306133125 156.3453429024217, -4.533626364555892 79.00824153360844, -0.5729342315898758 -2.567696422548301 M-0.5304792359784234 238.1377936636492 C-3.2350992715410936 160.64452835030758, -2.473577014493973 86.29318512245007, 0.721542122748746 -1.5930439730189276" stroke="#000000" stroke-width="2" fill="none"></path></g><g transform="translate(1292.7213086894913 731.4078808696331) rotate(0 183.3731857000613 119.14215087890621)"><path d="M1.64680533757244 1.0580455392113346 C88.07177578489723 2.6020701098750525, 173.35655893115543 2.36264522760395, 368.39317495802095 0.9721388955468927 M0.015913390722298856 -0.6875755576527728 C99.85164312930951 -0.6864031791085312, 201.5919087959682 -2.8076040352746965, 365.9451305667425 -0.6658406957004642 M366.42001049630915 -0.48027333477223444 C365.62166700420784 51.36000446679454, 363.2980052291265 100.95674665139641, 365.87620187419833 236.4069277705775 M367.865171774783 -0.4006626751610438 C363.2085448002335 50.493372246699195, 364.15794779082887 101.90757131346248, 367.5847150702821 239.08872075953457 M365.8172398098525 239.8282540622015 C281.575646772685 240.98447993463407, 202.26484224950346 243.93138338235028, -2.230886595446227 238.92102074874123 M367.306710203273 237.56138246774003 C238.71970273414675 237.87462581921653, 110.23610618892647 240.3366312803008, -0.7421965890748494 238.7947193890396 M-2.1113112035348505 241.2616339036222 C2.91302864369771 153.27447610346255, 6.8374608388433185 73.14794791624172, -2.567696422548301 0.6509304151219537 M-0.14650809416324173 236.77564202311166 C1.3895014114738378 155.72827555698495, 3.1609038428090948 75.38806643421357, -1.5930439730189276 -1.0486673593469311" stroke="#000000" stroke-width="2" fill="none"></path></g><g transform="translate(71.14328661151933 1203.1541834556087) rotate(0 135.96203373927688 94.43013808306523)"><path d="M0.8606665999897567 0.7130519203284392 C76.46164452257337 -1.81389519175404, 150.5995471767662 -5.695519826164268, 269.29757400543645 -3.0829184619467065 M0.7670431612214654 -0.2970954833437497 C88.95880561454636 5.345891686790862, 178.49707487291894 3.70685709371873, 271.6827143496838 1.0817595017742274 M268.56302781023214 -0.7458295524120331 C270.67082606709164 77.27816839943857, 273.61938964283627 145.5297359313673, 270.89407009996603 189.85681435816423 M273.5054807624979 0.40062926709651947 C269.5767513241091 57.17981283690482, 270.5539084400454 113.69360028854906, 273.7177138290567 189.9632612948908 M273.46942501014064 189.3953106165856 C217.40262443454623 193.01865843633374, 157.1591899822291 195.54512111978508, -2.1094478226111195 187.41782254635459 M272.13756592501346 188.08196453909068 C197.31213676368802 187.5200405182312, 122.66688699883188 188.5524032451053, -0.46234502744883177 187.84576364313898 M0.7573284804821014 185.8633575176491 C-3.0273267732943885 136.42030264952206, 0.4400966657314904 86.33958298647313, 1.9574503600597382 0.08633044362068176 M1.441433921456337 188.3170987849726 C1.1180779410768427 135.2850124016714, 1.530629344122497 84.40452208770613, 0.8035998493432999 -1.4316723495721817" stroke="#000000" stroke-width="2" fill="none"></path></g><g transform="translate(673.9500062231922 780.4098833470564) rotate(0 123.5 70.5)"><text x="123.5" y="49.5" font-family="Virgil, Segoe UI Emoji" font-size="55.98563855880895px" fill="#000000" text-anchor="middle" style="white-space: pre;" direction="ltr">CI </text><text x="123.5" y="120" font-family="Virgil, Segoe UI Emoji" font-size="55.98563855880895px" fill="#000000" text-anchor="middle" style="white-space: pre;" direction="ltr">aka Dev</text></g><g transform="translate(1306.1527195350795 743.3404370219768) rotate(0 171.5 105.5)"><text x="171.5" y="50.33333333333333" font-family="Virgil, Segoe UI Emoji" font-size="55.98563855880895px" fill="#000000" text-anchor="middle" style="white-space: pre;" direction="ltr">Beta</text><text x="171.5" y="120.66666666666666" font-family="Virgil, Segoe UI Emoji" font-size="55.98563855880895px" fill="#000000" text-anchor="middle" style="white-space: pre;" direction="ltr">aka preprod</text><text x="171.5" y="191" font-family="Virgil, Segoe UI Emoji" font-size="55.98563855880895px" fill="#000000" text-anchor="middle" style="white-space: pre;" direction="ltr">aka stage</text></g><g transform="translate(1990.7648853975186 813.3221025397465) rotate(0 141.5 35)"><text x="0" y="50" font-family="Virgil, Segoe UI Emoji" font-size="55.98563855880895px" fill="#000000" text-anchor="start" style="white-space: pre;" direction="ltr">Production</text></g><g transform="translate(637.6508430032166 659.6689162652365) rotate(0 170.74701047411162 27.539840399050263)"><text x="0" y="38.079680798100526" font-family="Virgil, Segoe UI Emoji" font-size="44.06374463848043px" fill="#000000" text-anchor="start" style="white-space: pre;" direction="ltr">Branche Master</text></g><g transform="translate(1325.721378102022 652.0665758661863) rotate(0 146 28)"><text x="0" y="39" font-family="Virgil, Segoe UI Emoji" font-size="44.06374463848043px" fill="#000000" text-anchor="start" style="white-space: pre;" direction="ltr">Branche beta</text></g><g transform="translate(1915.891015146293 650.9507670426569) rotate(0 204.5 28)"><text x="0" y="39" font-family="Virgil, Segoe UI Emoji" font-size="44.06374463848043px" fill="#000000" text-anchor="start" style="white-space: pre;" direction="ltr">Branche production</text></g><g><g transform="translate(198.1961023667277 537.4740872594156) rotate(0 -0.26583721339702615 321.7374178861287)"><path d="M-2.1769253462553024 1.6366109102964401 C-1.5440170019865036 108.21047903414257, 1.5437299042940138 535.0621197996381, 1.6452509194612501 641.8382248619608" stroke="#000000" stroke-width="2.5" fill="none" stroke-dasharray="3 6"></path></g></g><g><g transform="translate(360.0955044615499 538.0010839467623) rotate(0 117.51968921540272 125.90583965047028)"><path d="M-1.831959506869316 -0.917356088757515 C36.492590471673644 40.68494985023745, 192.58841494206905 210.0291270732685, 231.8241882685938 252.09366344032338 M2.369023975878954 -3.883660347014666 C41.364919485567654 39.41211286092409, 198.70369209229273 212.67911218586607, 236.87133793767478 255.69533964795522" stroke="#000000" stroke-width="2" fill="none"></path></g><g transform="translate(360.0955044615499 538.0010839467623) rotate(0 117.51968921540272 125.90583965047028)"><path d="M209.0821274788781 238.0275439683542 C220.28817915041708 246.06219765810368, 229.11555807290534 250.78988654424055, 233.69891841944244 255.83277505440168 M208.99901352540692 242.0338959608421 C218.11537955056494 248.3026679218754, 229.89959586190366 250.02513434207918, 237.43655613299396 255.3428458998864" stroke="#000000" stroke-width="2" fill="none"></path></g><g transform="translate(360.0955044615499 538.0010839467623) rotate(0 117.51968921540272 125.90583965047028)"><path d="M224.341830089697 224.3067029367262 C230.19012475821583 237.1776609316776, 233.41670865542113 246.9413338178012, 233.69891841944244 255.83277505440168 M224.25871613622581 228.3130549292141 C227.79934548486844 239.34677568248344, 234.18753846067744 245.92110457196407, 237.43655613299396 255.3428458998864" stroke="#000000" stroke-width="2" fill="none"></path></g></g><g><g transform="translate(350.9596186619177 1247.682456495782) rotate(0 126.18534744479784 -137.4480425536092)"><path d="M1.8616647928953167 1.221217849850655 C43.350940204738016 -43.957787908272806, 206.0227051987173 -225.6927401361707, 247.5143803094532 -271.7025472858957 M-0.5722413901984691 -0.5841462703049185 C41.95035227261824 -46.56452592820611, 211.21077733987784 -230.742414174412, 252.94293627979417 -276.11730295706906" stroke="#000000" stroke-width="2" fill="none"></path></g><g transform="translate(350.9596186619177 1247.682456495782) rotate(0 126.18534744479784 -137.4480425536092)"><path d="M243.1607735327472 -250.98179361684433 C245.9816435113287 -253.32784617718647, 244.3758938016541 -258.7149258527086, 253.23683721663613 -273.22518065859 M240.54450303530592 -248.97497560544124 C245.18251263859074 -254.50875791277483, 246.3335301941217 -259.77749633002287, 251.2251461678948 -275.5637944518439" stroke="#000000" stroke-width="2" fill="none"></path></g><g transform="translate(350.9596186619177 1247.682456495782) rotate(0 126.18534744479784 -137.4480425536092)"><path d="M228.05411851963817 -264.8709612197191 C234.57782171735062 -263.95615609980837, 236.73725893214188 -265.8814957538182, 253.23683721663613 -273.22518065859 M225.43784802219687 -262.864143208316 C233.55976104981085 -264.97947562177075, 238.34977159089078 -266.90249763534655, 251.2251461678948 -275.5637944518439" stroke="#000000" stroke-width="2" fill="none"></path></g></g><g><g transform="translate(1001.4620217715991 856.242457644679) rotate(0 142.1661470376671 -4.067711037530302)"><path d="M2.0994546145200728 -0.4263025015592574 C49.16567411576609 -1.4445947746630547, 237.32480225935083 -2.969323474266151, 284.5376597407401 -4.025676253554844 M-0.20536566540598855 -3.1260348124802118 C46.470774666566655 -5.069240414072676, 235.8110346038093 -7.594490784653046, 283.35927927538154 -7.70911957350137" stroke="#000000" stroke-width="2" fill="none"></path></g><g transform="translate(1001.4620217715991 856.242457644679) rotate(0 142.1661470376671 -4.067711037530302)"><path d="M254.65479409636166 5.598117527831061 C269.1761959972308 2.415596704670894, 275.8399920124874 -5.343617700885828, 283.7794075910687 -7.695193037656567 M256.3624195301643 2.385432613361342 C263.7341055864106 -0.8573855359243869, 271.434679235992 -2.824550107424713, 284.1416460429072 -6.082884341744206" stroke="#000000" stroke-width="2" fill="none"></path></g><g transform="translate(1001.4620217715991 856.242457644679) rotate(0 142.1661470376671 -4.067711037530302)"><path d="M254.4665717221251 -14.92222785726604 C269.3642995474477 -10.382875805517434, 276.09895014608 -10.417394733792904, 283.7794075910687 -7.695193037656567 M256.1741971559277 -18.13491277173576 C263.8212043726449 -15.094278789559286, 271.57941082746413 -10.77821017059066, 284.1416460429072 -6.082884341744206" stroke="#000000" stroke-width="2" fill="none"></path></g></g><g><g transform="translate(1672.626261393229 851.0034870564438) rotate(0 128.32613247259417 -2.4318231725035275)"><path d="M1.8307905465364458 0.4904718607664109 C44.56544040731743 0.5916332509587771, 214.1836244489826 -1.308898336454945, 257.27214088691204 -1.5808580807026829 M-0.6198759417235853 -1.7115829391777515 C41.55200690137501 -2.1637987624634736, 211.0011814784584 -4.773528511638162, 254.36489278225034 -5.354118205773493" stroke="#000000" stroke-width="2" fill="none"></path></g><g transform="translate(1672.626261393229 851.0034870564438) rotate(0 128.32613247259417 -2.4318231725035275)"><path d="M227.02603608002147 3.5517179154837946 C239.02571691344414 4.069626480783818, 248.93099727225692 0.7613084911692054, 255.32346806077092 -5.966848738658091 M226.61372424294433 4.8470303648198465 C235.2842898105799 2.1832156710049255, 240.37005451651825 0.785597123625938, 252.43549065438836 -3.5242322312470877" stroke="#000000" stroke-width="2" fill="none"></path></g><g transform="translate(1672.626261393229 851.0034870564438) rotate(0 128.32613247259417 -2.4318231725035275)"><path d="M226.7294299868266 -16.96734705374225 C238.50658939329747 -9.664260879060814, 248.5100065572403 -6.183522519069253, 255.32346806077092 -5.966848738658091 M226.31711814974946 -15.6720346044062 C234.9809100500654 -12.75104530637599, 240.14738458948122 -8.565196909631652, 252.43549065438836 -3.5242322312470877" stroke="#000000" stroke-width="2" fill="none"></path></g></g><g transform="translate(11.376740100336974 253.12050940249156) rotate(0 203 28)"><text x="0" y="39" font-family="Virgil, Segoe UI Emoji" font-size="44.06374463848043px" fill="#000000" text-anchor="start" style="white-space: pre;" direction="ltr">Branche feat-xxxx</text></g><g transform="translate(10 1419.4434918913853) rotate(0 203 28)"><text x="0" y="39" font-family="Virgil, Segoe UI Emoji" font-size="44.06374463848043px" fill="#000000" text-anchor="start" style="white-space: pre;" direction="ltr">Branche feat-xxxx</text></g><g><g transform="translate(365.9228060853246 1309.5758149133676) rotate(0 775.5006234685563 -161.20454271894602)"><path d="M0.5191013544797896 -2.4585179060697553 C259.4699859977839 -55.890745599955025, 1294.898032888312 -266.8453380936866, 1553.6448719180094 -320.2967135333401 M-2.6436249808967114 2.378547134846449 C255.9471269856471 -51.951453791498835, 1292.529660365471 -270.87538814663736, 1551.4514619841145 -324.7876325727385" stroke="#000000" stroke-width="2" fill="none"></path></g><g transform="translate(365.9228060853246 1309.5758149133676) rotate(0 775.5006234685563 -161.20454271894602)"><path d="M1522.4577266738117 -308.83708162848467 C1534.8935765035674 -314.56839662088186, 1538.3829650326666 -322.31555040192904, 1549.3119007780122 -323.5466123402995 M1527.3413350597323 -308.17668485884184 C1533.5240488694208 -315.09543885755903, 1542.6431077488803 -320.0770877419291, 1550.4728486223983 -323.43321597882925" stroke="#000000" stroke-width="2" fill="none"></path></g><g transform="translate(365.9228060853246 1309.5758149133676) rotate(0 775.5006234685563 -161.20454271894602)"><path d="M1518.2419056522024 -328.92057872185956 C1531.9759581217404 -328.6858250413263, 1536.720993417538 -330.45127844656764, 1549.3119007780122 -323.5466123402995 M1523.125514038123 -328.2601819522167 C1531.0775768631115 -328.4896647939953, 1541.5970935504063 -326.79975666280717, 1550.4728486223983 -323.43321597882925" stroke="#000000" stroke-width="2" fill="none"></path></g></g><g transform="translate(312.26731244255484 592.3526440532269) rotate(0 159.2460386986827 23.982837153416057)"><text x="159.2460386986827" y="33.96567430683212" font-family="Virgil, Segoe UI Emoji" font-size="38.37253944546571px" fill="#000000" text-anchor="middle" style="white-space: pre;" direction="ltr">Déploiement "CI"</text></g><g transform="translate(335.7454187729777 1065.1089211001786) rotate(0 159.2460386986827 23.982837153416085)"><text x="159.2460386986827" y="33.96567430683212" font-family="Virgil, Segoe UI Emoji" font-size="38.37253944546571px" fill="#000000" text-anchor="middle" style="white-space: pre;" direction="ltr">Déploiement "CI"</text></g><g transform="translate(1024.218125287224 751.3650006804482) rotate(0 121 48)"><text x="121" y="34" font-family="Virgil, Segoe UI Emoji" font-size="38.37253944546571px" fill="#000000" text-anchor="middle" style="white-space: pre;" direction="ltr">Déploiement </text><text x="121" y="82" font-family="Virgil, Segoe UI Emoji" font-size="38.37253944546571px" fill="#000000" text-anchor="middle" style="white-space: pre;" direction="ltr">Beta</text></g><g transform="translate(1675.645869236366 745.5096264751019) rotate(0 121 48)"><text x="121" y="34" font-family="Virgil, Segoe UI Emoji" font-size="38.37253944546571px" fill="#000000" text-anchor="middle" style="white-space: pre;" direction="ltr">Déploiement </text><text x="121" y="82" font-family="Virgil, Segoe UI Emoji" font-size="38.37253944546571px" fill="#000000" text-anchor="middle" style="white-space: pre;" direction="ltr">Production</text></g><g transform="translate(1186.4658179189644 1181.778092601787) rotate(0 69.5 48)"><text x="69.5" y="34" font-family="Virgil, Segoe UI Emoji" font-size="38.37253944546571px" fill="#000000" text-anchor="middle" style="white-space: pre;" direction="ltr">"Hotfix"</text><text x="69.5" y="82" font-family="Virgil, Segoe UI Emoji" font-size="38.37253944546571px" fill="#000000" text-anchor="middle" style="white-space: pre;" direction="ltr">1/2</text></g><g><g transform="translate(1955.6288081150426 731.4140143044524) rotate(0 -477.61954673977203 -183.0546007949833)"><path d="M-18.912281997274643 -8.217974027650127 C-92.64490328824067 -67.24494931414243, -304.6960958840896 -357.27573133119193, -458.2538190120222 -359.1390473004065 C-611.8115421399548 -361.00236326962107, -859.4569373862064 -75.86059656210122, -940.2586207648702 -19.397869842937496 M-14.116990220468526 -3.1686158196196654 C-88.46426811397615 -63.05778572529075, -306.18290700047703 -359.5617971362993, -460.68375917357815 -362.9405857703469 C-615.1846113466793 -366.3193744043945, -860.726082390012 -79.6924085935193, -941.1221032590755 -23.441347623905443" stroke="#000000" stroke-width="2" fill="none"></path></g><g transform="translate(1955.6288081150426 731.4140143044524) rotate(0 -477.61954673977203 -183.0546007949833)"><path d="M-929.9524521915146 -50.414080575246686 C-929.0008483686431 -37.36847417871152, -933.6768596873775 -31.2455409967428, -938.5888624937423 -21.3763642261832 M-928.721021616263 -48.028782606263036 C-930.5366237061423 -41.24388429821877, -933.5927573065711 -35.61062029199463, -940.6839132608064 -23.571941177090906" stroke="#000000" stroke-width="2" fill="none"></path></g><g transform="translate(1955.6288081150426 731.4140143044524) rotate(0 -477.61954673977203 -183.0546007949833)"><path d="M-916.2435643566664 -35.143638645905156 C-920.6670222274423 -28.014984399375543, -930.5901150948256 -27.73681813449286, -938.5888624937423 -21.3763642261832 M-915.0121337814148 -32.758340676921506 C-920.7531463085917 -30.239564900616045, -927.5153377161738 -28.734508901685995, -940.6839132608064 -23.571941177090906" stroke="#000000" stroke-width="2" fill="none"></path></g></g><g transform="translate(1430.399402094822 261.1836341152673) rotate(0 69.5 48)"><text x="69.5" y="34" font-family="Virgil, Segoe UI Emoji" font-size="38.37253944546571px" fill="#000000" text-anchor="middle" style="white-space: pre;" direction="ltr">"Hotfix"</text><text x="69.5" y="82" font-family="Virgil, Segoe UI Emoji" font-size="38.37253944546571px" fill="#000000" text-anchor="middle" style="white-space: pre;" direction="ltr">2/2</text></g><g transform="translate(132.89826037836986 394.900372588) rotate(0 86.62203081916395 19.310643813189415)"><text x="86.62203081916395" y="27.621287626378837" font-family="Virgil, Segoe UI Emoji" font-size="30.88910642466065px" fill="#000000" text-anchor="middle" style="white-space: pre;" direction="ltr">Custom env</text></g><g transform="translate(128.04950190525386 1284.4843126825926) rotate(0 86.62203081916395 19.310643813189415)"><text x="86.62203081916395" y="27.621287626378837" font-family="Virgil, Segoe UI Emoji" font-size="30.88910642466065px" fill="#000000" text-anchor="middle" style="white-space: pre;" direction="ltr">Custom env</text></g><g transform="translate(747.6905996285232 10) rotate(0 547.9777471375994 88.40809272317318)"><text x="547.9777471375994" y="123.81618544634634" font-family="Virgil, Segoe UI Emoji" font-size="139.49206060445698px" fill="#000000" text-anchor="middle" style="white-space: pre;" direction="ltr">Workflow BO V3</text></g></svg>